<!DOCTYPE svg PUBLIC "-//W3C//DTD SVG 1.1//EN" "http://www.w3.org/Graphics/SVG/1.1/DTD/svg11.dtd">

<!-- Uploaded to: SVG Repo, www.svgrepo.com, Transformed by: SVG Repo Mixer Tools -->
<svg version="1.1" id="Layer_1" xmlns="http://www.w3.org/2000/svg" xmlns:xlink="http://www.w3.org/1999/xlink" viewBox="0 0 512 512" xml:space="preserve" width="200px" height="200px" fill="#302e2c">

<g id="SVGRepo_bgCarrier" stroke-width="0"/>

<g id="SVGRepo_tracerCarrier" stroke-linecap="round" stroke-linejoin="round"/>

<g id="SVGRepo_iconCarrier"> <rect x="119.087" y="278.998" style="fill:#FFAE18;" width="20" height="20"/> <path style="fill:#5fdd68;" d="M69.809,128.515L256,32.385l186.191,96.131H69.809z"/>
 <path style="fill:#4d9a23;" d="M183.38,128.515L256,32.385l72.62,96.131H183.38z"/> 
 <rect x="209.993" y="312.508" style="fill:#FFAE18;" width="91.982" height="25.525"/> 
 <g> 
 <path style="fill:#A54E31;" 
 d="M292.049,479.628h-71.86l0,0c0-13.85,11.227-25.078,25.078-25.078h21.705 
 C280.822,454.551,292.049,465.778,292.049,479.628L292.049,479.628z"/>
  <rect x="346.687" y="354.231" style="fill:#A54E31;" width="109.934" 
  height="24.179"/> <rect x="55.38" y="354.231" style="fill:#A54E31;"
   width="109.934" height="24.179"/> </g> 
   <path d="M10.586,469.167h-0.137C4.678,469.167,0,473.846,0,479.616s4.678,10.449,10.449,10.449h0.137
    c5.77,0,10.449-4.679,10.449-10.449S16.356,469.167,10.586,469.167z"/>
     <path d="M501.551,469.167h-34.482v-90.755v-24.184V248.68c0-5.77-4.679-10.449-10.449-10.449s-10.449,4.679-10.449,10.449v95.099 
     h-99.488c-5.77,0-10.449,4.679-10.449,10.449v24.184c0,5.77,4.679,10.449,10.449,10.449h10.25v80.306h-56.01 c-4.476-14.5-18.003-25.065-33.953-25.065h-0.536v-95.621h35.54c5.77,0,10.449-4.679,10.449-10.449v-15.151h80.457
      c5.77,0,10.449-4.679,10.449-10.449v-33.437c0-5.77-4.679-10.449-10.449-10.449H358.91c-5.77,0-10.449,4.679-10.449,10.449 c0,5.77,4.679,10.449,10.449,10.449h23.523v12.539H129.541v-12.539h162.663c5.77,0,10.449-4.679,10.449-10.449 c0-5.77-4.679-10.449-10.449-10.449h-25.756V138.964H442.19c4.82,0,9.015-3.298,10.154-7.983c1.138-4.684-1.076-9.54-5.36-11.751 L260.794,23.1c-3.008-1.553-6.58-1.553-9.588,0L65.016,119.23c-4.284,2.211-6.498,7.067-5.36,11.751 
      c1.139,4.684,5.333,7.983,10.154,7.983h175.741v129.582H119.092c-5.77,0-10.449,4.679-10.449,10.449v33.437 c0,5.77,4.679,10.449,10.449,10.449h80.457v15.151c0,5.77,4.679,10.449,10.449,10.449h35.54v95.621h-0.271 
      c-15.95,0-29.477,10.566-33.953,25.065h-56.248v-80.306h10.25c5.77,0,10.449-4.679,10.449-10.449v-24.184 c0-5.77-4.679-10.449-10.449-10.449H65.829V248.68c0-5.77-4.679-10.449-10.449-10.449s-10.449,4.679-10.449,10.449v105.548v24.184 
      v90.755h-0.541c-5.77,0-10.449,4.679-10.449,10.449s4.679,10.449,10.449,10.449h457.162c5.77,0,10.449-4.679,10.449-10.449 S507.321,469.167,501.551,469.167z M399.176,118.066h-65.354l-41.789-55.318L399.176,118.066z M266.449,63.551l41.183,54.517 
      h-41.183V63.551z M178.178,118.066h-65.354l107.143-55.318L178.178,118.066z M245.551,63.551v54.517h-41.183L245.551,63.551z M220.447,322.956h71.079v4.627h-71.079V322.956z M357.133,364.677h89.039v3.286h-89.039V364.677z M377.832,388.861h68.339v80.306 h-68.339V388.861z
       M245.268,465h21.704c3.97,0,7.577,1.59,10.215,4.167h-42.133C237.691,466.59,241.297,465,245.268,465z M154.867,364.677v3.286H65.829v-3.286H154.867z 
      M65.829,388.861h68.339v80.306H65.829V388.861z"/> 
      <path d="M326.008,268.545c-5.77,0-10.449,4.679-10.449,10.449s4.679,10.449,10.449,10.449h0.137c5.77,0,10.449-4.679,10.449-10.449 s-4.679-10.449-10.449-10.449H326.008z"/> </g>

</svg>